<svg width="20" height="21" viewBox="0 0 20 21" fill="none" xmlns="http://www.w3.org/2000/svg">
<path d="M2.92969 0.5H17.0703C18.3869 0.5 19.5 1.63283 19.5 3.07617V17.9238C19.5 19.3672 18.3869 20.5 17.0703 20.5H12.2969V14.0352H15.2432L15.3096 13.6133L15.7002 11.1523L15.792 10.5742H12.2969V8.61328C12.2969 8.4218 12.3649 8.25669 12.4688 8.13086V10.3438H16.0049L15.3828 14.2656H12.4688V20.2695H17.0703C18.3384 20.2695 19.3281 19.1944 19.3281 17.9238V3.07617C19.3281 1.8056 18.3384 0.730469 17.0703 0.730469H2.92969C1.6616 0.730469 0.671875 1.8056 0.671875 3.07617V17.9238C0.671875 19.1944 1.6616 20.2695 2.92969 20.2695H8.78125V14.2656H6.4375V10.3438H8.78125V7.99805C8.78125 5.87618 10.42 4.19141 12.3828 4.19141H15.9844V8.11328H12.4834C12.6097 7.96992 12.785 7.88281 12.9688 7.88281H15.8125V4.42188H12.3828C10.4685 4.42188 8.95312 6.04895 8.95312 7.99805V10.5742H6.60938V14.0352H8.95312V20.5H2.92969C1.61309 20.5 0.5 19.3672 0.5 17.9238V3.07617L0.512695 2.80957C0.639718 1.49574 1.69532 0.5 2.92969 0.5Z" fill="white" stroke="#DFA866"/>
</svg>
