<svg width="40" height="45" viewBox="0 0 40 45" fill="none" xmlns="http://www.w3.org/2000/svg">
<path d="M2.4209 17.1572C6.45412 5.50815 17.6829 -1.24098 27.2373 1.68555C31.9206 3.12073 35.5859 6.61737 37.543 11.6055C39.4686 16.5123 39.4945 22.2761 37.5664 27.8438L37.5654 27.8447C34.18 37.6261 25.6654 44 17.3623 44H17.3613C15.7947 44.0023 14.2377 43.7702 12.75 43.3135L12.3066 43.1709C3.08556 40.0376 -1.54598 28.6149 2.4209 17.1572ZM27.5859 2.5625L25.6377 2.94141L26.1152 9.7832C26.2966 12.3764 25.6656 14.9669 24.2939 17.2344C23.0075 19.3609 21.1202 21.1186 18.8359 22.3125L18.374 22.5439L15.6709 23.835L15.6699 23.8359C13.2733 24.9832 11.359 26.883 10.2666 29.2246C9.24189 31.4213 9.00405 33.8716 9.58398 36.2031L9.71094 36.668L11.0234 41.0703L12.9814 40.7764L12.9512 36.7871C12.9368 34.561 13.5809 32.3706 14.8174 30.46C15.9771 28.6679 17.6168 27.1859 19.5781 26.1641L19.9746 25.9658L22.0234 24.9844L22.0244 24.9854C23.7574 24.162 25.3035 23.0213 26.5713 21.627C27.8392 20.2323 28.8039 18.611 29.4053 16.8564L29.4043 16.8555C30.3529 14.1197 30.3816 11.1729 29.4854 8.4209L27.5859 2.5625Z" stroke="#DFA866" stroke-width="2"/>
</svg>
