<svg width="20" height="21" viewBox="0 0 20 21" fill="none" xmlns="http://www.w3.org/2000/svg">
<path d="M5.04395 0.5H14.9561C17.4429 0.500172 19.5 2.6247 19.5 5.29688V15.7031C19.5 18.3753 17.4429 20.4998 14.9561 20.5H5.04395C2.55707 20.4998 0.5 18.3753 0.5 15.7031V5.29688C0.5 2.6247 2.55707 0.500172 5.04395 0.5ZM5.04395 1.17285C2.83913 1.17302 1.09277 3.04269 1.09277 5.29688V15.7031C1.09277 17.9573 2.83913 19.827 5.04395 19.8271H14.9561C17.1609 19.827 18.9072 17.9573 18.9072 15.7031V5.29688C18.9072 3.04269 17.1609 1.17302 14.9561 1.17285H5.04395ZM10 5.33203C12.6825 5.33203 14.8984 7.62243 14.8984 10.5C14.8984 13.3776 12.6825 15.668 10 15.668C7.31748 15.668 5.10156 13.3776 5.10156 10.5C5.10156 7.62243 7.31748 5.33203 10 5.33203ZM10 6.00488C7.59956 6.00488 5.69434 8.04045 5.69434 10.5C5.69434 12.9595 7.59956 14.9951 10 14.9951C12.4004 14.9951 14.3057 12.9595 14.3057 10.5C14.3057 8.04045 12.4004 6.00488 10 6.00488ZM15.6641 3.93848C15.9515 3.93868 16.2254 4.19012 16.2256 4.55273C16.2256 4.91554 15.9516 5.16777 15.6641 5.16797C15.3764 5.16797 15.1016 4.91569 15.1016 4.55273C15.1017 4.18997 15.3765 3.93848 15.6641 3.93848Z" fill="white" stroke="#DFA866"/>
</svg>
