<svg width="15" height="13" viewBox="0 0 15 13" fill="none" xmlns="http://www.w3.org/2000/svg">
<path d="M7.49855 12.5833C7.4073 12.5832 7.31702 12.5651 7.23279 12.53C7.14855 12.495 7.07202 12.4437 7.00758 12.3791L1.61454 6.97636C0.934841 6.29393 0.553223 5.37004 0.553223 4.40689C0.553223 3.44375 0.934841 2.51984 1.61454 1.83744C2.29574 1.15818 3.2185 0.776733 4.18051 0.776733C5.14251 0.776733 6.06526 1.15818 6.74647 1.83744L7.49855 2.593L8.25202 1.83953C8.93313 1.16009 9.85598 0.778525 10.818 0.778525C11.7801 0.778525 12.7029 1.16009 13.384 1.83953C14.0635 2.52201 14.445 3.44589 14.445 4.40897C14.445 5.37205 14.0635 6.29594 13.384 6.97844L7.9916 12.3798C7.92688 12.4446 7.85001 12.4959 7.76542 12.5307C7.68077 12.5657 7.59008 12.5835 7.49855 12.5833ZM4.18051 2.16661C3.88649 2.16537 3.59514 2.22249 3.32335 2.33466C3.05156 2.44684 2.80474 2.61183 2.59717 2.82008C2.17731 3.24187 1.94158 3.81279 1.94158 4.40793C1.94158 5.00309 2.17731 5.574 2.59717 5.9958L7.49855 10.9062L12.402 5.9958C12.6106 5.78782 12.776 5.5408 12.8891 5.26886C13.0022 4.99691 13.0606 4.70538 13.061 4.41088C13.0613 4.11637 13.0038 3.82468 12.8914 3.55244C12.779 3.28021 12.6142 3.03277 12.4062 2.82425C12.1982 2.61573 11.9513 2.45022 11.6793 2.33716C11.4074 2.2241 11.1158 2.16571 10.8213 2.16532C10.2265 2.16454 9.65577 2.40007 9.23466 2.82008L7.9916 4.06661C7.85904 4.1928 7.68299 4.26317 7.49994 4.26317C7.31688 4.26317 7.14091 4.1928 7.00827 4.06661L5.76245 2.81939C5.55499 2.61143 5.30837 2.44666 5.03683 2.33461C4.7653 2.22257 4.47425 2.16546 4.18051 2.16661Z" fill="#DFA866"/>
</svg>
