<svg width="64" height="28" viewBox="0 0 64 28" fill="none" xmlns="http://www.w3.org/2000/svg">
<path d="M1.72 27V4.88C1.72 4.29333 1.61333 3.88 1.4 3.64C1.18667 3.37333 0.8 3.24 0.24 3.24C0.213333 2.54667 0.4 2 0.8 1.6C1.2 1.2 1.84 0.999999 2.72 0.999999C3.62667 0.999999 4.25333 1.44 4.6 2.32C5.64 1.44 6.70667 0.999999 7.8 0.999999C10.44 0.999999 11.76 2.30667 11.76 4.92V11.92C11.76 13.1467 11.3733 14.08 10.6 14.72C11.5067 15.3333 11.96 16.3467 11.96 17.76V22.76C11.96 24.0933 11.4933 25.1333 10.56 25.88C9.65333 26.6267 8.41333 27 6.84 27H1.72ZM7.04 3.64C6.32 3.64 5.6 4 4.88 4.72V13.52H6.84C7.37333 13.52 7.8 13.3733 8.12 13.08C8.44 12.7867 8.6 12.4 8.6 11.92V5.16C8.6 4.14667 8.08 3.64 7.04 3.64ZM4.88 16.16V24.36H6.92C7.48 24.36 7.93333 24.2267 8.28 23.96C8.62667 23.6667 8.8 23.2667 8.8 22.76V17.76C8.8 17.2533 8.62667 16.8667 8.28 16.6C7.93333 16.3067 7.48 16.16 6.92 16.16H4.88ZM19.8841 13.48C20.8441 13.48 21.5641 13.4133 22.0441 13.28C22.2574 14.0267 22.3641 14.76 22.3641 15.48C22.3641 15.9067 22.1774 16.12 21.8041 16.12H19.4441C18.8841 16.12 18.4307 16.2667 18.0841 16.56C17.7641 16.8533 17.6041 17.24 17.6041 17.72V23.16C17.6041 23.6667 17.7641 24.0667 18.0841 24.36C18.4307 24.6267 18.8841 24.76 19.4441 24.76C20.0041 24.76 20.4574 24.6267 20.8041 24.36C21.1507 24.0667 21.3241 23.6667 21.3241 23.16V22.16L21.2041 20.12C21.5774 20.04 21.9507 20 22.3241 20C22.6974 20 23.0707 20.0533 23.4441 20.16C24.1374 20.3467 24.4841 20.68 24.4841 21.16V23.72C24.4841 24.8133 24.0307 25.7067 23.1241 26.4C22.2174 27.0667 20.9907 27.4 19.4441 27.4C17.9241 27.4 16.7107 27.0267 15.8041 26.28C14.8974 25.5333 14.4441 24.4933 14.4441 23.16V17.56C14.4441 16.36 14.8307 15.44 15.6041 14.8C14.8307 14.16 14.4441 13.24 14.4441 12.04V4.84C14.4441 3.50667 14.8974 2.46667 15.8041 1.72C16.7107 0.973332 17.9107 0.599999 19.4041 0.599999C20.9241 0.599999 22.1241 0.946666 23.0041 1.64C23.8841 2.30667 24.3241 3.18667 24.3241 4.28V7.64C24.3241 8.12 23.9774 8.45333 23.2841 8.64C22.9107 8.74667 22.5374 8.8 22.1641 8.8C21.7907 8.8 21.4174 8.76 21.0441 8.68C21.1241 8.04 21.1641 7.36 21.1641 6.64V4.84C21.1641 3.77333 20.5774 3.24 19.4041 3.24C18.8441 3.24 18.4041 3.38667 18.0841 3.68C17.7641 3.94667 17.6041 4.33333 17.6041 4.84V11.88C17.6041 12.36 17.7507 12.7467 18.0441 13.04C18.3641 13.3333 18.7774 13.48 19.2841 13.48H19.8841ZM26.8306 26.52V4.84C26.8306 3.50667 27.284 2.46667 28.1906 1.72C29.0973 0.973332 30.3373 0.599999 31.9106 0.599999C33.484 0.599999 34.6973 0.946666 35.5506 1.64C36.4306 2.33333 36.8706 3.34667 36.8706 4.68V23.6C36.8706 24.16 36.9773 24.56 37.1906 24.8C37.4306 25.0133 37.8306 25.12 38.3906 25.12C38.3906 26.64 37.5373 27.4 35.8306 27.4C34.4173 27.4 33.7106 26.48 33.7106 24.64V17H29.9906V23.24L30.1506 27C29.244 27.1333 28.3506 27.2 27.4706 27.2C27.044 27.2 26.8306 26.9733 26.8306 26.52ZM29.9906 4.84V14.36H33.7106V4.84C33.7106 4.33333 33.5373 3.94667 33.1906 3.68C32.844 3.38667 32.3906 3.24 31.8306 3.24C31.2706 3.24 30.8173 3.38667 30.4706 3.68C30.1506 3.94667 29.9906 4.33333 29.9906 4.84ZM45.4766 3.64C44.7566 3.64 44.0366 4 43.3166 4.72V23.24L43.4766 27C42.5699 27.1333 41.6766 27.2 40.7966 27.2C40.3699 27.2 40.1566 26.9733 40.1566 26.52V4.88C40.1566 4.29333 40.0499 3.88 39.8366 3.64C39.6232 3.37333 39.2366 3.24 38.6766 3.24C38.6499 2.54667 38.8366 2 39.2366 1.6C39.6366 1.2 40.2766 0.999999 41.1566 0.999999C42.0366 0.999999 42.6632 1.44 43.0366 2.32C44.0766 1.44 45.1432 0.999999 46.2366 0.999999C48.8766 0.999999 50.1966 2.30667 50.1966 4.92V23.6C50.1966 24.16 50.3032 24.56 50.5166 24.8C50.7566 25.0133 51.1566 25.12 51.7166 25.12C51.7166 26.64 50.8632 27.4 49.1566 27.4C47.7432 27.4 47.0366 26.48 47.0366 24.64V5.16C47.0366 4.14667 46.5166 3.64 45.4766 3.64ZM53.0759 10.24V4.84C53.0759 3.50667 53.5293 2.46667 54.4359 1.72C55.3426 0.973332 56.5559 0.599999 58.0759 0.599999C59.6226 0.599999 60.8493 0.946666 61.7559 1.64C62.6626 2.30667 63.1159 3.18667 63.1159 4.28V9.24C63.1159 9.72 62.7693 10.0533 62.0759 10.24C61.7026 10.3467 61.3293 10.4 60.9559 10.4C60.5826 10.4 60.2093 10.36 59.8359 10.28C59.9159 9.64 59.9559 8.96 59.9559 8.24V4.84C59.9559 4.33333 59.7826 3.94667 59.4359 3.68C59.0893 3.38667 58.6359 3.24 58.0759 3.24C57.5159 3.24 57.0626 3.38667 56.7159 3.68C56.3959 3.94667 56.2359 4.33333 56.2359 4.84V9.52C56.2359 10.4533 56.5426 11.1067 57.1559 11.48L61.3959 14.2C62.5959 14.9467 63.1959 16.0933 63.1959 17.64V23.16C63.1959 24.4933 62.7293 25.5333 61.7959 26.28C60.8626 27.0267 59.6226 27.4 58.0759 27.4C56.5559 27.4 55.3293 27.0667 54.3959 26.4C53.4626 25.7067 52.9959 24.8133 52.9959 23.72V18.76C52.9959 18.28 53.3426 17.9467 54.0359 17.76C54.4093 17.6533 54.7826 17.6 55.1559 17.6C55.5293 17.6 55.9026 17.64 56.2759 17.72C56.1959 18.36 56.1559 19.04 56.1559 19.76V23.16C56.1559 23.64 56.3426 24.0267 56.7159 24.32C57.0893 24.6133 57.5559 24.76 58.1159 24.76C58.6759 24.76 59.1293 24.6133 59.4759 24.32C59.8493 24.0267 60.0359 23.64 60.0359 23.16V18.64C60.0359 17.6 59.6759 16.8533 58.9559 16.4L54.7159 13.64C53.6226 12.9467 53.0759 11.8133 53.0759 10.24Z" fill="#DFA866"/>
</svg>
