<svg width="18" height="33" viewBox="0 0 18 33" fill="none" xmlns="http://www.w3.org/2000/svg">
<path d="M16.6872 1.3124C15.8124 0.43755 14.7499 0 13.4997 0H4.49967C3.24948 0 2.18703 0.43755 1.31217 1.3124C0.43739 2.18751 0 3.24986 0 4.50012V13.5C0 14.7502 0.43739 15.8125 1.31217 16.6873C2.18703 17.5621 3.24956 17.9998 4.49967 17.9998H9.74975C10.3746 17.9998 10.9064 18.2187 11.3438 18.6561C11.7809 19.0935 12.0001 19.6247 12.0001 20.25V20.9996C12.0001 22.656 11.414 24.0696 10.242 25.2417C9.07019 26.4133 7.65655 26.9992 5.99984 26.9992H4.49967C4.09348 26.9992 3.74171 27.1481 3.44503 27.4448C3.1481 27.7414 2.99943 28.0931 2.99943 28.4994V31.4998C2.99943 31.9054 3.1481 32.2577 3.44503 32.5545C3.74163 32.8511 4.09339 33 4.49967 33H5.99984C7.62478 33 9.17551 32.6831 10.6524 32.0505C12.1287 31.4178 13.4058 30.5621 14.4841 29.4839C15.5623 28.4056 16.4184 27.1283 17.0508 25.6519C17.6834 24.1757 18 22.6246 18 20.9997V4.49979C17.9998 3.24953 17.5626 2.18718 16.6872 1.3124Z" fill="#DFA866"/>
</svg>
