<svg width="13" height="13" viewBox="0 0 13 13" fill="none" xmlns="http://www.w3.org/2000/svg">
<path d="M4.94639 0.0358699C6.23825 0.00365802 7.49394 0.46874 8.45225 1.33567C9.41056 2.20271 9.99895 3.40538 10.0958 4.69407C10.1926 5.98276 9.79071 7.25996 8.97276 8.26048L11.9757 11.2634C12.0612 11.3592 12.1071 11.4846 12.1036 11.613C12.1 11.7416 12.047 11.8648 11.9562 11.9558C11.8653 12.0465 11.7427 12.0996 11.6144 12.1033C11.4859 12.1068 11.3606 12.0608 11.2648 11.9753L8.26084 8.97142C7.26048 9.78924 5.9839 10.1911 4.69542 10.0945C3.4067 9.99762 2.20406 9.40924 1.33702 8.45091C0.470097 7.4926 0.00500873 6.23786 0.0372118 4.94603C0.0695392 3.65404 0.596983 2.42336 1.51084 1.5095C2.42462 0.595911 3.65465 0.0682475 4.94639 0.0358699ZM6.62022 1.35814C5.88457 1.05322 5.07413 0.97345 4.29307 1.12864C3.51218 1.28394 2.7946 1.66729 2.23155 2.23021C1.6684 2.79336 1.28432 3.51158 1.12901 4.29271C0.973849 5.07373 1.05458 5.88327 1.35948 6.61888C1.66445 7.35455 2.18055 7.9833 2.84288 8.42552C3.50519 8.86766 4.28384 9.10361 5.08018 9.10325C6.14673 9.10166 7.16968 8.67764 7.92393 7.92357C8.67817 7.16921 9.1031 6.14558 9.10459 5.07884C9.10489 4.28257 8.86899 3.50379 8.42686 2.84153C7.98472 2.17933 7.35572 1.66313 6.62022 1.35814Z" fill="#DFA866"/>
</svg>
