<svg width="13" height="14" viewBox="0 0 13 14" fill="none" xmlns="http://www.w3.org/2000/svg">
<path fill-rule="evenodd" clip-rule="evenodd" d="M10.4936 12.0834H2.50601C2.15076 12.0834 1.87835 11.7464 1.92852 11.3702L2.59526 6.37018C2.6361 6.06205 2.88227 5.83337 3.17277 5.83337H3.58285V7.08337C3.58285 7.42837 3.84418 7.70837 4.16618 7.70837C4.48877 7.70837 4.74952 7.42837 4.74952 7.08337V5.83337H8.24952V7.08337C8.24952 7.42837 8.51085 7.70837 8.83285 7.70837C9.15543 7.70837 9.41618 7.42837 9.41618 7.08337V5.83337H9.82685C10.1173 5.83337 10.3635 6.06205 10.4044 6.37018L11.0711 11.3702C11.1213 11.7464 10.8489 12.0834 10.4936 12.0834ZM4.74952 3.95837C4.74952 2.92462 5.53468 2.08337 6.49952 2.08337C7.46493 2.08337 8.24952 2.70837 8.24952 3.95837V4.58337H4.74952V3.95837ZM12.3212 11.9065L11.4876 5.65652C11.4059 5.0409 10.9136 4.58337 10.3326 4.58337H9.41618V3.95837C9.41618 2.08337 8.10777 0.833374 6.49952 0.833374C4.89185 0.833374 3.58285 2.23525 3.58285 3.95837V4.58337H2.84493C2.26452 4.58337 1.59368 5.0409 1.51143 5.65652L0.678432 11.9065C0.578099 12.6596 1.12351 13.3334 1.83343 13.3334H11.1662C11.8761 13.3334 12.4215 12.6596 12.3212 11.9065Z" fill="#DFA866"/>
</svg>
