<svg width="24" height="23" viewBox="0 0 24 23" fill="none" xmlns="http://www.w3.org/2000/svg">
<path d="M23 1.01177C22.0424 1.8023 20.9821 2.40693 19.86 2.80237C19.2577 1.99193 18.4573 1.41751 17.567 1.1568C16.6767 0.896094 15.7395 0.961673 14.8821 1.34467C14.0247 1.72767 13.2884 2.40961 12.773 3.29826C12.2575 4.18691 11.9877 5.23939 12 6.31336V7.48368C10.2426 7.53701 8.50127 7.08087 6.93101 6.15588C5.36074 5.23089 4.01032 3.86577 3 2.1821C3 2.1821 -1 12.7151 8 17.3964C5.94053 19.0324 3.48716 19.8528 1 19.737C10 25.5887 21 19.737 21 6.27825C20.9991 5.95226 20.9723 5.62707 20.92 5.30687C21.9406 4.12893 22.6608 2.6417 23 1.01177Z" stroke="#DFA866" stroke-width="2" stroke-linecap="round" stroke-linejoin="round"/>
</svg>
